<mxfile host="app.diagrams.net" modified="2023-03-30T07:54:34.720Z" agent="Mozilla/5.0 (Windows NT 10.0; Win64; x64) AppleWebKit/537.36 (KHTML, like Gecko) Chrome/111.0.0.0 Safari/537.36" etag="hmDprp0yYsMOT9WNcCZY" version="21.1.1" type="github">
  <diagram name="第 1 页" id="zpJ9tGqrUDj3nd0Npqym">
    <mxGraphModel dx="1448" dy="392" grid="1" gridSize="10" guides="1" tooltips="1" connect="1" arrows="1" fold="1" page="1" pageScale="1" pageWidth="827" pageHeight="1169" math="0" shadow="0">
      <root>
        <mxCell id="0" />
        <mxCell id="1" parent="0" />
        <mxCell id="n9BJzqpLGBHRDGqMs7kX-1" value="&lt;font style=&quot;font-size: 22px;&quot;&gt;Admin Domain Microservice Architecture&lt;/font&gt;" style="text;whiteSpace=wrap;html=1;" vertex="1" parent="1">
          <mxGeometry x="50" y="30" width="410" height="40" as="geometry" />
        </mxCell>
        <mxCell id="n9BJzqpLGBHRDGqMs7kX-12" value="" style="group" vertex="1" connectable="0" parent="1">
          <mxGeometry x="140.41320256254767" y="195.04761904761904" width="344.69679743745235" height="307.95238095238096" as="geometry" />
        </mxCell>
        <mxCell id="n9BJzqpLGBHRDGqMs7kX-2" value="" style="shape=hexagon;perimeter=hexagonPerimeter2;whiteSpace=wrap;html=1;fixedSize=1;size=41.05999999999983;fillColor=#DEEDFF;strokeColor=none;" vertex="1" parent="n9BJzqpLGBHRDGqMs7kX-12">
          <mxGeometry y="66.65826330532212" width="344.69679743745235" height="241.29411764705884" as="geometry" />
        </mxCell>
        <mxCell id="n9BJzqpLGBHRDGqMs7kX-8" value="" style="verticalLabelPosition=bottom;verticalAlign=top;html=1;shape=mxgraph.basic.acute_triangle;dx=0.5;labelBackgroundColor=none;fillColor=#F3E3FF;strokeColor=none;aspect=fixed;" vertex="1" parent="n9BJzqpLGBHRDGqMs7kX-12">
          <mxGeometry x="41.55798961297444" width="262" height="66.7" as="geometry" />
        </mxCell>
        <mxCell id="n9BJzqpLGBHRDGqMs7kX-17" value="" style="image;sketch=0;aspect=fixed;html=1;points=[];align=center;fontSize=12;image=img/lib/mscae/Azure_Database_for_PostgreSQL_servers.svg;" vertex="1" parent="n9BJzqpLGBHRDGqMs7kX-12">
          <mxGeometry x="99.58679743745233" y="94.95238095238096" width="38" height="50" as="geometry" />
        </mxCell>
        <mxCell id="n9BJzqpLGBHRDGqMs7kX-14" value="" style="image;aspect=fixed;html=1;points=[];align=center;fontSize=12;image=img/lib/azure2/storage/Azure_HCP_Cache.svg;" vertex="1" parent="1">
          <mxGeometry x="-190" y="240" width="68" height="63" as="geometry" />
        </mxCell>
        <mxCell id="n9BJzqpLGBHRDGqMs7kX-16" value="" style="image;sketch=0;aspect=fixed;html=1;points=[];align=center;fontSize=12;image=img/lib/mscae/Database_General.svg;" vertex="1" parent="1">
          <mxGeometry x="-640" y="387" width="38" height="50" as="geometry" />
        </mxCell>
        <mxCell id="n9BJzqpLGBHRDGqMs7kX-19" value="" style="strokeColor=#dddddd;shadow=1;strokeWidth=1;rounded=1;absoluteArcSize=1;arcSize=2;" vertex="1" parent="1">
          <mxGeometry x="-503" y="630" width="140" height="60" as="geometry" />
        </mxCell>
        <mxCell id="n9BJzqpLGBHRDGqMs7kX-20" value="API&#xa;Monetization" style="editableCssRules=.*;html=1;fontColor=#999999;shape=image;verticalLabelPosition=middle;labelBackgroundColor=#ffffff;verticalAlign=middle;labelPosition=right;align=left;spacingLeft=20;part=1;points=[];imageAspect=0;image=data:image/svg+xml,PHN2ZyB4bWxucz0iaHR0cDovL3d3dy53My5vcmcvMjAwMC9zdmciIHhtbG5zOnY9Imh0dHBzOi8vdmVjdGEuaW8vbmFubyIgd2lkdGg9IjE4LjMwMDAwMTE0NDQwOTE4IiBoZWlnaHQ9IjE5LjgyNjUwNTY2MTAxMDc0MiIgdmlld0JveD0iLTguNzkxNTE5NjkwMDIxMjMyZS04IDAgMTguMzAwMDAxMTQ0NDA5MTggMTkuODI2NTA1NjYxMDEwNzQyIj4mI3hhOwk8c3R5bGUgdHlwZT0idGV4dC9jc3MiPiYjeGE7CS5zdDB7ZmlsbDojNDI4NWY0fSYjeGE7CS5zdDF7ZmlsbDojYWVjYmZhfSYjeGE7CS5zdDJ7ZmlsbDojNjY5ZGY2fSYjeGE7CTwvc3R5bGU+JiN4YTsJPHBhdGggY2xhc3M9InN0MCIgZD0iTTMuMDEgMTguNDlhMS41MSAxLjUxIDAgMCAxLTMgMGgwdi00LjI4YTEuNTEgMS41MSAwIDEgMSAzIDB6bTUuMTMgMGExLjUxIDEuNTEgMCAwIDEtMyAwaDB2LTQuMjhhMS41MSAxLjUxIDAgMCAxIDMgMHptNS4wNiAwYTEuNTEgMS41MSAwIDAgMS0zIDB2LTQuMjhhMS41MSAxLjUxIDAgMCAxIDMgMHptNS4wOSAwYTEuNTEgMS41MSAwIDAgMS0zIDB2LTQuMjhhMS41MSAxLjUxIDAgMSAxIDMgMHoiLz4mI3hhOwk8Y2lyY2xlIGNsYXNzPSJzdDEiIGN4PSI2LjU5IiBjeT0iOS45NyIgcj0iMS41MSIvPiYjeGE7CTxjaXJjbGUgY2xhc3M9InN0MiIgY3g9IjExLjY5IiBjeT0iOS45NyIgcj0iMS41MSIvPiYjeGE7CTxjaXJjbGUgY2xhc3M9InN0MSIgY3g9IjExLjY5IiBjeT0iNS43NCIgcj0iMS41MSIvPiYjeGE7CTxnIGNsYXNzPSJzdDIiPiYjeGE7CQk8Y2lyY2xlIGN4PSIxNi43OCIgY3k9IjkuOTciIHI9IjEuNTEiLz4mI3hhOwkJPGNpcmNsZSBjeD0iMTYuNzgiIGN5PSI1Ljc0IiByPSIxLjUxIi8+JiN4YTsJPC9nPiYjeGE7CTxjaXJjbGUgY2xhc3M9InN0MSIgY3g9IjE2Ljc4IiBjeT0iMS41MSIgcj0iMS41MSIvPiYjeGE7PC9zdmc+;" vertex="1" parent="n9BJzqpLGBHRDGqMs7kX-19">
          <mxGeometry width="30" height="30" relative="1" as="geometry">
            <mxPoint x="15" y="15" as="offset" />
          </mxGeometry>
        </mxCell>
        <mxCell id="n9BJzqpLGBHRDGqMs7kX-21" value="" style="strokeColor=#dddddd;shadow=1;strokeWidth=1;rounded=1;absoluteArcSize=1;arcSize=2;" vertex="1" parent="1">
          <mxGeometry x="-628" y="570" width="160" height="60" as="geometry" />
        </mxCell>
        <mxCell id="n9BJzqpLGBHRDGqMs7kX-22" value="&lt;font color=&quot;#000000&quot;&gt;Name&lt;/font&gt;&lt;br&gt;Cloud Endpoints" style="editableCssRules=.*;html=1;fontColor=#999999;shape=image;verticalLabelPosition=middle;labelBackgroundColor=#ffffff;verticalAlign=middle;labelPosition=right;align=left;spacingLeft=20;part=1;points=[];imageAspect=0;image=data:image/svg+xml,PHN2ZyB4bWxucz0iaHR0cDovL3d3dy53My5vcmcvMjAwMC9zdmciIHhtbG5zOnY9Imh0dHBzOi8vdmVjdGEuaW8vbmFubyIgd2lkdGg9IjE5Ljk1MDAwMDc2MjkzOTQ1MyIgaGVpZ2h0PSIxMiIgdmlld0JveD0iMCAwIDE5Ljk1MDAwMDc2MjkzOTQ1MyAxMiI+JiN4YTsJPHN0eWxlIHR5cGU9InRleHQvY3NzIj4mI3hhOwkuc3Qwe2ZpbGw6IzQyODVmNH0mI3hhOwkuc3Qxe2ZpbGw6I2FlY2JmYX0mI3hhOwk8L3N0eWxlPiYjeGE7CTxwYXRoIGNsYXNzPSJzdDAiIGQ9Ik02IDZsMSAyaDZsMS0yLTEtMkg3eiIgZmlsbD0iIzQyODVmNCIvPiYjeGE7CTxwYXRoIGNsYXNzPSJzdDEiIGQ9Ik03LjUxIDRIN0w2IDZoOGwtMS0yeiIgZmlsbD0iI2FlY2JmYSIvPiYjeGE7CTxwYXRoIGNsYXNzPSJzdDAiIGQ9Ik0xNi45NyA2bDEuNS0yLjI1TDE2IDBoLTN6IiBmaWxsPSIjNDI4NWY0Ii8+JiN4YTsJPHBhdGggY2xhc3M9InN0MSIgZD0iTTE2Ljk3IDZoMEwxMyAxMmgzbDMuOTUtNi0xLjQ4LTIuMjV6IiBmaWxsPSIjYWVjYmZhIi8+JiN4YTsJPHBhdGggY2xhc3M9InN0MCIgZD0iTTIuOTggNmwtMS41IDIuMjVMMy45NSAxMmgzeiIgZmlsbD0iIzQyODVmNCIvPiYjeGE7CTxwYXRoIGNsYXNzPSJzdDEiIGQ9Ik0yLjk4IDZoMGwzLjk3LTZoLTNMMCA2bDEuNDggMi4yNXoiIGZpbGw9IiNhZWNiZmEiLz4mI3hhOzwvc3ZnPg==;" vertex="1" parent="n9BJzqpLGBHRDGqMs7kX-21">
          <mxGeometry width="30" height="18" relative="1" as="geometry">
            <mxPoint x="15" y="21" as="offset" />
          </mxGeometry>
        </mxCell>
        <mxCell id="n9BJzqpLGBHRDGqMs7kX-23" value="" style="strokeColor=#dddddd;shadow=1;strokeWidth=1;rounded=1;absoluteArcSize=1;arcSize=2;" vertex="1" parent="1">
          <mxGeometry x="-613" y="660" width="130" height="60" as="geometry" />
        </mxCell>
        <mxCell id="n9BJzqpLGBHRDGqMs7kX-24" value="Developer&#xa;Portal" style="editableCssRules=.*;html=1;fontColor=#999999;shape=image;verticalLabelPosition=middle;labelBackgroundColor=#ffffff;verticalAlign=middle;labelPosition=right;align=left;spacingLeft=20;part=1;points=[];imageAspect=0;image=data:image/svg+xml,PHN2ZyB4bWxucz0iaHR0cDovL3d3dy53My5vcmcvMjAwMC9zdmciIHhtbG5zOnY9Imh0dHBzOi8vdmVjdGEuaW8vbmFubyIgd2lkdGg9IjIwIiBoZWlnaHQ9IjE0LjE0MzAxOTY3NjIwODQ5NiIgdmlld0JveD0iMCAwLjAwMDQ4OTk2NjI0NTM2ODEyMzEgMjAgMTQuMTQzMDE5Njc2MjA4NDk2Ij4mI3hhOwk8c3R5bGUgdHlwZT0idGV4dC9jc3MiPiYjeGE7CS5zdDB7ZmlsbDojNDI4NWY0O30mI3hhOwkuc3Qxe2ZpbGw6IzY2OWRmNjt9JiN4YTsJPC9zdHlsZT4mI3hhOwk8cGF0aCBjbGFzcz0ic3QwIiBkPSJNMTAgMS40NzJhNS41OSA1LjU5IDAgMCAxIDQgMS42bDEtMWE3LjA3IDcuMDcgMCAwIDAtMTAgMGgwbDEgMWE1LjU5IDUuNTkgMCAwIDEgNC0xLjZ6bTAgMTEuMmE1LjU5IDUuNTkgMCAwIDEtNC0xLjZsLTEgMWE3LjA3IDcuMDcgMCAwIDAgMTAgMGgwbC0xLTFhNS41OSA1LjU5IDAgMCAxLTQgMS42eiIvPiYjeGE7CTxwYXRoIGNsYXNzPSJzdDEiIGQ9Ik0xMCAxMC4xNDJhMy4wNiAzLjA2IDAgMCAxLTMtMi4zNEgzLjExdjIuMzhMMCA3LjA3MmwzLjExLTMuMXYyLjM4SDdhMy4wNiAzLjA2IDAgMCAxIDMtMi4zNGgwYTMuMDYgMy4wNiAwIDAgMSAzIDIuMzRoMy45MXYtMi4zOUwyMCA3LjA3MmwtMy4xMSAzLjEydi0yLjM5SDEzYTMuMDYgMy4wNiAwIDAgMS0zIDIuMzR6bTAtNC42OGExLjYxIDEuNjEgMCAxIDAgMS42MSAxLjYxaDBBMS42MSAxLjYxIDAgMCAwIDEwIDUuNDYyeiIvPiYjeGE7PC9zdmc+;" vertex="1" parent="n9BJzqpLGBHRDGqMs7kX-23">
          <mxGeometry width="30" height="21" relative="1" as="geometry">
            <mxPoint x="15" y="19.5" as="offset" />
          </mxGeometry>
        </mxCell>
        <mxCell id="n9BJzqpLGBHRDGqMs7kX-25" value="" style="image;sketch=0;aspect=fixed;html=1;points=[];align=center;fontSize=12;image=img/lib/mscae/Kubernetes.svg;imageBackground=default;" vertex="1" parent="1">
          <mxGeometry x="-20" y="630" width="50" height="48" as="geometry" />
        </mxCell>
        <mxCell id="n9BJzqpLGBHRDGqMs7kX-26" value="" style="shape=doubleArrow;whiteSpace=wrap;html=1;strokeColor=none;fillColor=#333333;" vertex="1" parent="1">
          <mxGeometry x="-160" y="150" width="100" height="60" as="geometry" />
        </mxCell>
        <mxCell id="n9BJzqpLGBHRDGqMs7kX-27" value="" style="shape=image;html=1;verticalLabelPosition=bottom;verticalAlign=top;imageAspect=0;image=img/clipart/Gear_128x128.png" vertex="1" parent="1">
          <mxGeometry x="-280" y="150" width="50" height="60" as="geometry" />
        </mxCell>
        <mxCell id="n9BJzqpLGBHRDGqMs7kX-30" value="" style="group" vertex="1" connectable="0" parent="1">
          <mxGeometry x="-270" y="370" width="47" height="39.48000000000002" as="geometry" />
        </mxCell>
        <mxCell id="n9BJzqpLGBHRDGqMs7kX-15" value="" style="sketch=0;pointerEvents=1;shadow=0;dashed=0;html=1;strokeColor=none;labelPosition=center;verticalLabelPosition=bottom;verticalAlign=top;align=center;fillColor=#505050;shape=mxgraph.mscae.enterprise.settings;aspect=fixed;" vertex="1" parent="n9BJzqpLGBHRDGqMs7kX-30">
          <mxGeometry width="27" height="27" as="geometry" />
        </mxCell>
        <mxCell id="n9BJzqpLGBHRDGqMs7kX-28" value="" style="sketch=0;pointerEvents=1;shadow=0;dashed=0;html=1;strokeColor=none;labelPosition=center;verticalLabelPosition=bottom;verticalAlign=top;align=center;fillColor=#505050;shape=mxgraph.mscae.enterprise.settings;aspect=fixed;" vertex="1" parent="n9BJzqpLGBHRDGqMs7kX-30">
          <mxGeometry x="32" y="6" width="15" height="15" as="geometry" />
        </mxCell>
        <mxCell id="n9BJzqpLGBHRDGqMs7kX-29" value="" style="sketch=0;pointerEvents=1;shadow=0;dashed=0;html=1;strokeColor=none;labelPosition=center;verticalLabelPosition=bottom;verticalAlign=top;align=center;fillColor=#505050;shape=mxgraph.mscae.enterprise.settings;aspect=fixed;" vertex="1" parent="n9BJzqpLGBHRDGqMs7kX-30">
          <mxGeometry x="22" y="24.480000000000018" width="15" height="15" as="geometry" />
        </mxCell>
        <mxCell id="n9BJzqpLGBHRDGqMs7kX-33" value="" style="group" vertex="1" connectable="0" parent="1">
          <mxGeometry x="-270" y="370" width="47" height="39.48000000000002" as="geometry" />
        </mxCell>
        <mxCell id="n9BJzqpLGBHRDGqMs7kX-34" value="" style="sketch=0;pointerEvents=1;shadow=0;dashed=0;html=1;strokeColor=none;labelPosition=center;verticalLabelPosition=bottom;verticalAlign=top;align=center;fillColor=#505050;shape=mxgraph.mscae.enterprise.settings;aspect=fixed;" vertex="1" parent="n9BJzqpLGBHRDGqMs7kX-33">
          <mxGeometry width="27" height="27" as="geometry" />
        </mxCell>
        <mxCell id="n9BJzqpLGBHRDGqMs7kX-35" value="" style="sketch=0;pointerEvents=1;shadow=0;dashed=0;html=1;strokeColor=none;labelPosition=center;verticalLabelPosition=bottom;verticalAlign=top;align=center;fillColor=#505050;shape=mxgraph.mscae.enterprise.settings;aspect=fixed;" vertex="1" parent="n9BJzqpLGBHRDGqMs7kX-33">
          <mxGeometry x="32" y="6" width="15" height="15" as="geometry" />
        </mxCell>
        <mxCell id="n9BJzqpLGBHRDGqMs7kX-36" value="" style="sketch=0;pointerEvents=1;shadow=0;dashed=0;html=1;strokeColor=none;labelPosition=center;verticalLabelPosition=bottom;verticalAlign=top;align=center;fillColor=#505050;shape=mxgraph.mscae.enterprise.settings;aspect=fixed;" vertex="1" parent="n9BJzqpLGBHRDGqMs7kX-33">
          <mxGeometry x="22" y="24.480000000000018" width="15" height="15" as="geometry" />
        </mxCell>
        <mxCell id="n9BJzqpLGBHRDGqMs7kX-38" value="" style="group" vertex="1" connectable="0" parent="1">
          <mxGeometry x="-206" y="380" width="47" height="39.48000000000002" as="geometry" />
        </mxCell>
        <mxCell id="n9BJzqpLGBHRDGqMs7kX-39" value="" style="sketch=0;pointerEvents=1;shadow=0;dashed=0;html=1;strokeColor=none;labelPosition=center;verticalLabelPosition=bottom;verticalAlign=top;align=center;fillColor=#505050;shape=mxgraph.mscae.enterprise.settings;aspect=fixed;" vertex="1" parent="n9BJzqpLGBHRDGqMs7kX-38">
          <mxGeometry width="27" height="27" as="geometry" />
        </mxCell>
        <mxCell id="n9BJzqpLGBHRDGqMs7kX-40" value="" style="sketch=0;pointerEvents=1;shadow=0;dashed=0;html=1;strokeColor=none;labelPosition=center;verticalLabelPosition=bottom;verticalAlign=top;align=center;fillColor=#505050;shape=mxgraph.mscae.enterprise.settings;aspect=fixed;" vertex="1" parent="n9BJzqpLGBHRDGqMs7kX-38">
          <mxGeometry x="32" y="6" width="15" height="15" as="geometry" />
        </mxCell>
        <mxCell id="n9BJzqpLGBHRDGqMs7kX-41" value="" style="sketch=0;pointerEvents=1;shadow=0;dashed=0;html=1;strokeColor=none;labelPosition=center;verticalLabelPosition=bottom;verticalAlign=top;align=center;fillColor=#505050;shape=mxgraph.mscae.enterprise.settings;aspect=fixed;" vertex="1" parent="n9BJzqpLGBHRDGqMs7kX-38">
          <mxGeometry x="22" y="24.480000000000018" width="15" height="15" as="geometry" />
        </mxCell>
        <mxCell id="n9BJzqpLGBHRDGqMs7kX-42" value="" style="group" vertex="1" connectable="0" parent="1">
          <mxGeometry x="-120" y="360" width="47" height="39.48000000000002" as="geometry" />
        </mxCell>
        <mxCell id="n9BJzqpLGBHRDGqMs7kX-43" value="" style="sketch=0;pointerEvents=1;shadow=0;dashed=0;html=1;strokeColor=none;labelPosition=center;verticalLabelPosition=bottom;verticalAlign=top;align=center;fillColor=#505050;shape=mxgraph.mscae.enterprise.settings;aspect=fixed;" vertex="1" parent="n9BJzqpLGBHRDGqMs7kX-42">
          <mxGeometry width="27" height="27" as="geometry" />
        </mxCell>
        <mxCell id="n9BJzqpLGBHRDGqMs7kX-44" value="" style="sketch=0;pointerEvents=1;shadow=0;dashed=0;html=1;strokeColor=none;labelPosition=center;verticalLabelPosition=bottom;verticalAlign=top;align=center;fillColor=#505050;shape=mxgraph.mscae.enterprise.settings;aspect=fixed;" vertex="1" parent="n9BJzqpLGBHRDGqMs7kX-42">
          <mxGeometry x="32" y="6" width="15" height="15" as="geometry" />
        </mxCell>
        <mxCell id="n9BJzqpLGBHRDGqMs7kX-45" value="" style="sketch=0;pointerEvents=1;shadow=0;dashed=0;html=1;strokeColor=none;labelPosition=center;verticalLabelPosition=bottom;verticalAlign=top;align=center;fillColor=#505050;shape=mxgraph.mscae.enterprise.settings;aspect=fixed;" vertex="1" parent="n9BJzqpLGBHRDGqMs7kX-42">
          <mxGeometry x="22" y="24.480000000000018" width="15" height="15" as="geometry" />
        </mxCell>
        <mxCell id="n9BJzqpLGBHRDGqMs7kX-46" value="" style="group" vertex="1" connectable="0" parent="1">
          <mxGeometry x="-300" y="440" width="47" height="39.48000000000002" as="geometry" />
        </mxCell>
        <mxCell id="n9BJzqpLGBHRDGqMs7kX-47" value="" style="sketch=0;pointerEvents=1;shadow=0;dashed=0;html=1;strokeColor=none;labelPosition=center;verticalLabelPosition=bottom;verticalAlign=top;align=center;fillColor=#505050;shape=mxgraph.mscae.enterprise.settings;aspect=fixed;" vertex="1" parent="n9BJzqpLGBHRDGqMs7kX-46">
          <mxGeometry width="27" height="27" as="geometry" />
        </mxCell>
        <mxCell id="n9BJzqpLGBHRDGqMs7kX-48" value="" style="sketch=0;pointerEvents=1;shadow=0;dashed=0;html=1;strokeColor=none;labelPosition=center;verticalLabelPosition=bottom;verticalAlign=top;align=center;fillColor=#505050;shape=mxgraph.mscae.enterprise.settings;aspect=fixed;" vertex="1" parent="n9BJzqpLGBHRDGqMs7kX-46">
          <mxGeometry x="32" y="6" width="15" height="15" as="geometry" />
        </mxCell>
        <mxCell id="n9BJzqpLGBHRDGqMs7kX-49" value="" style="sketch=0;pointerEvents=1;shadow=0;dashed=0;html=1;strokeColor=none;labelPosition=center;verticalLabelPosition=bottom;verticalAlign=top;align=center;fillColor=#505050;shape=mxgraph.mscae.enterprise.settings;aspect=fixed;" vertex="1" parent="n9BJzqpLGBHRDGqMs7kX-46">
          <mxGeometry x="22" y="24.480000000000018" width="15" height="15" as="geometry" />
        </mxCell>
        <mxCell id="n9BJzqpLGBHRDGqMs7kX-68" value="" style="group" vertex="1" connectable="0" parent="1">
          <mxGeometry x="-280" y="690" width="164.84" height="102.20000000000005" as="geometry" />
        </mxCell>
        <mxCell id="n9BJzqpLGBHRDGqMs7kX-56" value="" style="sketch=0;aspect=fixed;pointerEvents=1;shadow=0;dashed=0;html=1;strokeColor=none;labelPosition=center;verticalLabelPosition=bottom;verticalAlign=top;align=center;fillColor=#333333;shape=mxgraph.mscae.enterprise.internet_hollow" vertex="1" parent="n9BJzqpLGBHRDGqMs7kX-68">
          <mxGeometry width="164.84" height="102.2" as="geometry" />
        </mxCell>
        <mxCell id="n9BJzqpLGBHRDGqMs7kX-60" value="&lt;font style=&quot;font-size: 18px;&quot;&gt;UI&lt;/font&gt;" style="text;html=1;align=center;verticalAlign=middle;resizable=0;points=[];autosize=1;strokeColor=none;fillColor=none;" vertex="1" parent="n9BJzqpLGBHRDGqMs7kX-68">
          <mxGeometry x="64" y="14.200000000000045" width="40" height="40" as="geometry" />
        </mxCell>
        <mxCell id="n9BJzqpLGBHRDGqMs7kX-64" value="" style="sketch=0;aspect=fixed;pointerEvents=1;shadow=0;dashed=0;html=1;strokeColor=none;labelPosition=center;verticalLabelPosition=bottom;verticalAlign=top;align=center;fillColor=#333333;shape=mxgraph.azure.computer" vertex="1" parent="n9BJzqpLGBHRDGqMs7kX-68">
          <mxGeometry x="140" y="74.5" width="15" height="13.5" as="geometry" />
        </mxCell>
        <mxCell id="n9BJzqpLGBHRDGqMs7kX-65" value="&lt;font style=&quot;font-size: 22px;&quot;&gt;ADM&lt;/font&gt;" style="text;html=1;align=center;verticalAlign=middle;resizable=0;points=[];autosize=1;strokeColor=none;fillColor=none;" vertex="1" parent="n9BJzqpLGBHRDGqMs7kX-68">
          <mxGeometry x="49" y="48" width="70" height="40" as="geometry" />
        </mxCell>
        <mxCell id="n9BJzqpLGBHRDGqMs7kX-71" value="Stackdriver" style="sketch=0;html=1;verticalAlign=top;labelPosition=center;verticalLabelPosition=bottom;align=center;spacingTop=-6;fontSize=11;fontStyle=1;fontColor=#999999;shape=image;aspect=fixed;imageAspect=0;image=data:image/svg+xml,PHN2ZyB4bWxucz0iaHR0cDovL3d3dy53My5vcmcvMjAwMC9zdmciIHhtbG5zOnY9Imh0dHBzOi8vdmVjdGEuaW8vbmFubyIgd2lkdGg9IjQxNiIgaGVpZ2h0PSIzNjIuMjAwMDEyMjA3MDMxMjUiIHZpZXdCb3g9IjAgMCA0MTYgMzYyLjIwMDAxMjIwNzAzMTI1Ij4mI3hhOwk8c3R5bGUgdHlwZT0idGV4dC9jc3MiPiYjeGE7CS5zdDB7ZmlsbDojNDI4NWY0O30mI3hhOwkuc3Qxe2ZpbGw6IzY2OWRmNjt9JiN4YTsJLnN0MntmaWxsOiNhZWNiZmE7fSYjeGE7CTwvc3R5bGU+JiN4YTsJPHBhdGggY2xhc3M9InN0MiIgZD0iTTk2LjAzIDBMMCAxNjcuMTdoMTkwLjY3TDI4Ny45NCAweiIvPiYjeGE7CTxwYXRoIGNsYXNzPSJzdDAiIGQ9Ik0yODcuNTkgMzYyLjJsLTk1LjY4LTE2Ny4xN0gwTDk1LjY4IDM2Mi4yeiIvPiYjeGE7CTxwYXRoIGNsYXNzPSJzdDEiIGQ9Ik00MTYgMTgxLjFMMzIwIDEzLjMxIDIyMy44OCAxODEuMSAzMjAgMzQ4Ljl6Ii8+JiN4YTs8L3N2Zz4=;imageBackground=none;" vertex="1" parent="1">
          <mxGeometry x="99" y="820" width="42" height="36" as="geometry" />
        </mxCell>
        <mxCell id="n9BJzqpLGBHRDGqMs7kX-72" value="Apigee API&#xa;Platform" style="sketch=0;html=1;verticalAlign=top;labelPosition=center;verticalLabelPosition=bottom;align=center;spacingTop=-6;fontSize=11;fontStyle=1;fontColor=#999999;shape=image;aspect=fixed;imageAspect=0;image=data:image/svg+xml,PHN2ZyB4bWxucz0iaHR0cDovL3d3dy53My5vcmcvMjAwMC9zdmciIHhtbG5zOnY9Imh0dHBzOi8vdmVjdGEuaW8vbmFubyIgd2lkdGg9IjIwLjE4MDIzMTA5NDM2MDM1IiBoZWlnaHQ9IjIwLjE4MDIwODIwNjE3Njc1OCIgdmlld0JveD0iLTAuMDAwMTE1MTY1MTIzMTMzOTIwMTMgLTAuMDAwMTAzMzQ0NDkzMjU0NTUzNTMgMjAuMTgwMjMxMDk0MzYwMzUgMjAuMTgwMjA4MjA2MTc2NzU4Ij4mI3hhOwk8c3R5bGUgdHlwZT0idGV4dC9jc3MiPiYjeGE7CS5zdDB7ZmlsbDojNjY5ZGY2O2ZpbGwtcnVsZTpldmVub2RkfSYjeGE7CS5zdDF7ZmlsbC1ydWxlOmV2ZW5vZGQ7ZmlsbDojNDI4NWY0fSYjeGE7CTwvc3R5bGU+JiN4YTsJPHBhdGggY2xhc3M9InN0MCIgZD0iTTMuMjkgMTAuMDlsMS4zMi0xLjMyLTEuNzktMS43OWEyLjk0IDIuOTQgMCAwIDEgMi4wOC01IDIuOTIgMi45MiAwIDAgMSAyLjA3Ljg2bDEuOCAxLjc5IDEuMzItMS4zNEw4LjMgMS41YTQuODEgNC44MSAwIDEgMC02LjggNi44em0xMy42IDBsLTEuMzIgMS4zMiAxLjc5IDEuOGEyLjk0IDIuOTQgMCAwIDEtNC4xNiA0LjE1bC0xLjc5LTEuNzktMS4zMiAxLjMyIDEuNzkgMS43OWE0LjgxIDQuODEgMCAxIDAgNi44LTYuOHoiLz4mI3hhOwk8cGF0aCBjbGFzcz0ic3QxIiBkPSJNNi45OCAxNy4zNmEyLjk0IDIuOTQgMCAxIDEtNC4xNi00LjE2bDEuNzktMS43OSA0LjE2IDQuMTZ6bTYuMjMtMTQuNTRhMi45MyAyLjkzIDAgMCAxIDUgMi4wOCAzIDMgMCAwIDEtLjg2IDIuMDhsLTEuNzkgMS43OS00LjE1LTQuMTZ6bS0zLjEyIDEwLjQ2YTMuMiAzLjIgMCAwIDEtMy4xOS0zLjE5aDBhMy4yMSAzLjIxIDAgMCAxIDMuMTktMy4xOWgwYTMuMjEgMy4yMSAwIDAgMSAzLjE5IDMuMTloMGEzLjIgMy4yIDAgMCAxLTMuMTkgMy4xOXptNi44LTMuMTlsMS43OS0xLjc5QTQuODEgNC44MSAwIDAgMCAxNi41NzQuMTUzIDQuODEgNC44MSAwIDAgMCAxMS44OCAxLjVsLTEuNzkgMS43OS02LjggNi44LTEuNzkgMS43OWE0LjgxIDQuODEgMCAwIDAgMi4xMDYgOC4xNDdBNC44MSA0LjgxIDAgMCAwIDguMyAxOC42OGwxLjc5LTEuNzl6Ii8+JiN4YTs8L3N2Zz4=;imageBackground=none;" vertex="1" parent="1">
          <mxGeometry x="170" y="579" width="42" height="42" as="geometry" />
        </mxCell>
        <mxCell id="n9BJzqpLGBHRDGqMs7kX-75" value="" style="group" vertex="1" connectable="0" parent="1">
          <mxGeometry x="261.76" y="220" width="102" height="40" as="geometry" />
        </mxCell>
        <mxCell id="n9BJzqpLGBHRDGqMs7kX-73" value="" style="image;sketch=0;aspect=fixed;html=1;points=[];align=center;fontSize=12;image=img/lib/mscae/Quick_Start_Center.svg;" vertex="1" parent="n9BJzqpLGBHRDGqMs7kX-75">
          <mxGeometry y="5" width="30" height="30" as="geometry" />
        </mxCell>
        <mxCell id="n9BJzqpLGBHRDGqMs7kX-74" value="&lt;font style=&quot;font-size: 18px;&quot;&gt;CI / CD&lt;/font&gt;" style="text;html=1;align=center;verticalAlign=middle;resizable=0;points=[];autosize=1;strokeColor=none;fillColor=none;" vertex="1" parent="n9BJzqpLGBHRDGqMs7kX-75">
          <mxGeometry x="22" width="80" height="40" as="geometry" />
        </mxCell>
        <mxCell id="n9BJzqpLGBHRDGqMs7kX-76" value="" style="sketch=0;outlineConnect=0;fontColor=#232F3E;gradientColor=none;fillColor=#333333;strokeColor=none;dashed=0;verticalLabelPosition=bottom;verticalAlign=top;align=center;html=1;fontSize=12;fontStyle=0;aspect=fixed;shape=mxgraph.aws4.location_service_track;" vertex="1" parent="1">
          <mxGeometry x="-120" y="575.16" width="22.84" height="22.84" as="geometry" />
        </mxCell>
        <mxCell id="n9BJzqpLGBHRDGqMs7kX-13" value="" style="sketch=0;aspect=fixed;pointerEvents=1;shadow=0;dashed=0;html=1;strokeColor=none;labelPosition=center;verticalLabelPosition=bottom;verticalAlign=top;align=center;fillColor=#333333;shape=mxgraph.mscae.enterprise.internet_hollow;container=0;" vertex="1" parent="1">
          <mxGeometry x="-310" y="510" width="164.84" height="102.2" as="geometry" />
        </mxCell>
        <mxCell id="n9BJzqpLGBHRDGqMs7kX-50" value="" style="edgeStyle=isometricEdgeStyle;endArrow=none;html=1;rounded=0;" edge="1" parent="1">
          <mxGeometry width="50" height="100" relative="1" as="geometry">
            <mxPoint x="-165" y="602.2" as="sourcePoint" />
            <mxPoint x="-159.2" y="592.2" as="targetPoint" />
          </mxGeometry>
        </mxCell>
        <mxCell id="n9BJzqpLGBHRDGqMs7kX-51" value="" style="edgeStyle=isometricEdgeStyle;endArrow=none;html=1;rounded=0;" edge="1" parent="1">
          <mxGeometry width="50" height="100" relative="1" as="geometry">
            <mxPoint x="-165" y="587.2" as="sourcePoint" />
            <mxPoint x="-159.2" y="577.2" as="targetPoint" />
          </mxGeometry>
        </mxCell>
        <mxCell id="n9BJzqpLGBHRDGqMs7kX-52" value="" style="edgeStyle=isometricEdgeStyle;endArrow=none;html=1;rounded=0;" edge="1" parent="1">
          <mxGeometry width="50" height="100" relative="1" as="geometry">
            <mxPoint x="-173.8" y="595.2" as="sourcePoint" />
            <mxPoint x="-168" y="585.2" as="targetPoint" />
          </mxGeometry>
        </mxCell>
        <mxCell id="n9BJzqpLGBHRDGqMs7kX-53" value="&lt;font style=&quot;font-size: 18px;&quot;&gt;API&lt;/font&gt;" style="text;html=1;align=center;verticalAlign=middle;resizable=0;points=[];autosize=1;strokeColor=none;fillColor=none;container=0;" vertex="1" parent="1">
          <mxGeometry x="-251" y="524.2" width="50" height="40" as="geometry" />
        </mxCell>
        <mxCell id="n9BJzqpLGBHRDGqMs7kX-66" value="&lt;font style=&quot;font-size: 22px;&quot;&gt;ADM&lt;/font&gt;" style="text;html=1;align=center;verticalAlign=middle;resizable=0;points=[];autosize=1;strokeColor=none;fillColor=none;container=0;" vertex="1" parent="1">
          <mxGeometry x="-261" y="560" width="70" height="40" as="geometry" />
        </mxCell>
        <mxCell id="n9BJzqpLGBHRDGqMs7kX-84" value="" style="group" vertex="1" connectable="0" parent="1">
          <mxGeometry x="-223" y="840" width="164.84" height="102.20000000000005" as="geometry" />
        </mxCell>
        <mxCell id="n9BJzqpLGBHRDGqMs7kX-78" value="" style="sketch=0;aspect=fixed;pointerEvents=1;shadow=0;dashed=0;html=1;strokeColor=none;labelPosition=center;verticalLabelPosition=bottom;verticalAlign=top;align=center;fillColor=#333333;shape=mxgraph.mscae.enterprise.internet_hollow;container=0;" vertex="1" parent="n9BJzqpLGBHRDGqMs7kX-84">
          <mxGeometry width="164.84" height="102.2" as="geometry" />
        </mxCell>
        <mxCell id="n9BJzqpLGBHRDGqMs7kX-82" value="&lt;font style=&quot;font-size: 18px;&quot;&gt;API&lt;/font&gt;" style="text;html=1;align=center;verticalAlign=middle;resizable=0;points=[];autosize=1;strokeColor=none;fillColor=none;container=0;" vertex="1" parent="n9BJzqpLGBHRDGqMs7kX-84">
          <mxGeometry x="59" y="14.200000000000045" width="50" height="40" as="geometry" />
        </mxCell>
        <mxCell id="n9BJzqpLGBHRDGqMs7kX-83" value="&lt;font style=&quot;font-size: 22px;&quot;&gt;ADM&lt;/font&gt;" style="text;html=1;align=center;verticalAlign=middle;resizable=0;points=[];autosize=1;strokeColor=none;fillColor=none;container=0;" vertex="1" parent="n9BJzqpLGBHRDGqMs7kX-84">
          <mxGeometry x="49" y="50" width="70" height="40" as="geometry" />
        </mxCell>
        <mxCell id="n9BJzqpLGBHRDGqMs7kX-77" value="" style="sketch=0;outlineConnect=0;fontColor=#232F3E;gradientColor=none;fillColor=#333333;strokeColor=none;dashed=0;verticalLabelPosition=bottom;verticalAlign=top;align=center;html=1;fontSize=12;fontStyle=0;aspect=fixed;shape=mxgraph.aws4.location_service_track;" vertex="1" parent="n9BJzqpLGBHRDGqMs7kX-84">
          <mxGeometry x="140" y="76.15999999999997" width="17" height="17" as="geometry" />
        </mxCell>
        <mxCell id="n9BJzqpLGBHRDGqMs7kX-85" value="" style="sketch=0;outlineConnect=0;fontColor=#232F3E;gradientColor=none;fillColor=#3F8624;strokeColor=none;dashed=0;verticalLabelPosition=bottom;verticalAlign=top;align=center;html=1;fontSize=12;fontStyle=0;aspect=fixed;pointerEvents=1;shape=mxgraph.aws4.iot_greengrass_component;" vertex="1" parent="1">
          <mxGeometry x="-294" y="820" width="78" height="78" as="geometry" />
        </mxCell>
      </root>
    </mxGraphModel>
  </diagram>
</mxfile>
